# xmcd
#
# Track frame offsets: 
#        150
#        25513
#        46454
#        64796
#        87108
#        103743
#        118655
#        137487
#        156509
#        169199
#        191220
#        209305
#        235283
#        248503
#        267238
#        283959
#        299127
#        314343
#        333706
#
# Disc length: 4680 seconds
#
# Revision: 2
# Processed by: cddbd v1.5.1PL0 Copyright (c) Steve Scherf et al.
# Submitted via: ExactAudioCopy v0.95b2
#
DISCID=27124613
DTITLE=Various Artist - The Piano and The Song CD 01
DYEAR=2004
DGENRE=Oldies
TTITLE0=Billy Joel - Piano Man
TTITLE1=Elton John - Rocket Man
TTITLE2=Sarah McLachlan - Adia
TTITLE3=Bruce Hornsby - The Way It Is
TTITLE4=Paul McCartney and Stevie Wonder - Ebony and Ivory
TTITLE5=Madness - It Must Be Love
TTITLE6=The Whitlams - Cries To Hard
TTITLE7=Marc Cohn - Walking In Memphis
TTITLE8=The Beach Boys - God Only Knows
TTITLE9=Eurythmics - Sweet Dreams
TTITLE10=Joe Jackson - Steppin' Out
TTITLE11=Supertramp - Goodbye Stranger
TTITLE12=Marvin Gaye - How Sweet It Is
TTITLE13=Lionel Richie - Hello
TTITLE14=The Doobie Brothers - What A Fool Believes
TTITLE15=ABBA - S.O.S.
TTITLE16=Stranglers - Golden Brown
TTITLE17=Boomtown Rats - I Don't Like Mondays
TTITLE18=Christopher Cross - Arthur's Theme
EXTD=
EXTT0=
EXTT1=
EXTT2=
EXTT3=
EXTT4=
EXTT5=
EXTT6=
EXTT7=
EXTT8=
EXTT9=
EXTT10=
EXTT11=
EXTT12=
EXTT13=
EXTT14=
EXTT15=
EXTT16=
EXTT17=
EXTT18=
PLAYORDER=
